<svg xmlns="http://www.w3.org/2000/svg" width="256" height="256" viewBox="0 0 256 256">
  <!-- simple dirt texture -->
  <rect width="256" height="256" fill="#7a5a3a"/>
  <g fill="#5f442c" opacity="0.8">
    <circle cx="30" cy="40" r="12"/>
    <circle cx="80" cy="70" r="16"/>
    <circle cx="140" cy="50" r="14"/>
    <circle cx="200" cy="80" r="18"/>
    <circle cx="220" cy="40" r="10"/>
    <circle cx="40" cy="130" r="18"/>
    <circle cx="110" cy="120" r="14"/>
    <circle cx="170" cy="140" r="20"/>
    <circle cx="220" cy="150" r="15"/>
    <circle cx="60" cy="200" r="16"/>
    <circle cx="130" cy="210" r="18"/>
    <circle cx="210" cy="220" r="14"/>
  </g>
  <g fill="#8f6b45" opacity="0.7">
    <circle cx="55" cy="30" r="8"/>
    <circle cx="110" cy="80" r="9"/>
    <circle cx="170" cy="60" r="8"/>
    <circle cx="240" cy="110" r="9"/>
    <circle cx="30" cy="170" r="8"/>
    <circle cx="150" cy="180" r="10"/>
    <circle cx="205" cy="190" r="8"/>
  </g>
</svg>

